# AST/ASF file generated using VICON BodyLanguage
# -----------------------------------------------
:version 1.10
:name VICON
:units
  mass 1.0
  length 0.45
  angle deg
:documentation
   .ast/.asf automatically generated from VICON data using
   VICON BodyBuilder and BodyLanguage model FoxedUp or BRILLIANT.MOD
:root
   order TX TY TZ RX RY RZ
   axis XYZ
   position 0 0 0  
   orientation 0 0 0 
:bonedata
  begin
     id 1 
     name lhipjoint
     direction 0.756833 -0.6125 0.228138 
     length 2.53827 
     axis 0 0 0  XYZ
  end
  begin
     id 2 
     name lfemur
     direction 0.34202 -0.939693 0  
     length 6.51821  
     axis 0 0 20  XYZ
    dof rx ry rz
    limits (-160.0 20.0)
           (-70.0 70.0)
           (-60.0 70.0)
  end
  begin
     id 3 
     name ltibia
     direction 0.34202 -0.939693 0   
     length 6.99902   
     axis 0 0 20   XYZ
    dof rx
    limits (-10.0 170.0)
  end
  begin
     id 4 
     name lfoot
     direction 0.0951515 -0.261427 0.960522   
     length 1.92102   
     axis -90 7.62852e-016 20   XYZ
    dof rx rz
    limits (-45.0 90.0)
           (-70.0 20.0)
  end
  begin
     id 5 
     name ltoes
     direction 1.53539e-011 -4.21781e-011 1   
     length 0.964376   
     axis -90 7.62852e-016 20   XYZ
    dof rx
    limits (-90.0 20.0)
  end
  begin
     id 6 
     name rhipjoint
     direction -0.752153 -0.617542 0.230017   
     length 2.51754  
     axis 0 0 0  XYZ 
  end
  begin
     id 7 
     name rfemur
     direction -0.34202 -0.939693 0   
     length 6.82377   
     axis 0 0 -20   XYZ
    dof rx ry rz
    limits (-160.0 20.0)
           (-70.0 70.0)
           (-70.0 60.0)
  end
  begin
     id 8 
     name rtibia
     direction -0.34202 -0.939693 0   
     length 6.98689   
     axis 0 0 -20   XYZ
    dof rx
    limits (-10.0 170.0)
 end
 begin
     id 9 
     name rfoot
     direction -0.0900426 -0.24739 0.964723   
     length 2.03215  
     axis -90 -7.62852e-016 -20   XYZ
    dof rx rz
    limits (-45.0 90.0)
           (-20.0 70.0)
  end
  begin
     id 10 
     name rtoes
     direction -1.53466e-011 -4.22206e-011 1   
     length 1.0197   
     axis -90 -7.62852e-016 -20   XYZ
    dof rx
    limits (-90.0 20.0)
  end
  begin
     id 11 
     name lowerback
     direction 0.0184183 0.995705 -0.0907278   
     length 2.019   
     axis 0 0 0   XYZ
    dof rx ry rz
    limits (-20.0 45.0)
           (-30.0 30.0)
           (-30.0 30.0)
  end
  begin
     id 12 
     name upperback
     direction 0.00281055 0.998777 0.0493607   
     length 1.99623   
     axis 0 0 0   XYZ
    dof rx ry rz
    limits (-20.0 45.0)
           (-30.0 30.0)
           (-30.0 30.0)
  end
  begin
     id 13 
     name thorax
     direction -0.00665507 0.995706 0.092331   
     length 2.02811   
     axis 0 0 0   XYZ
    dof rx ry rz
    limits (-20.0 45.0)
           (-30.0 30.0)
           (-30.0 30.0)
  end
  begin
     id 14 
     name lowerneck
     direction -0.0960965 0.994358 0.0449225   
     length 1.71265   
     axis 0 0 0   XYZ
    dof rx ry rz
    limits (-20.0 45.0)
           (-30.0 30.0)
           (-30.0 30.0)
  end
  begin
     id 15 
     name upperneck
     direction 0.13642 0.985357 -0.102278   
     length 1.73016   
     axis 0 0 0   XYZ
    dof rx ry rz
    limits (-20.0 45.0)
           (-30.0 30.0)
           (-30.0 30.0)
  end
  begin
     id 16
     name head
     direction 0.0556079 0.997632 -0.040479  
     length 1.74275  
     axis 0 0 0   XYZ
    dof rx ry rz
    limits (-20.0 45.0)
           (-30.0 30.0)
           (-30.0 30.0)
  end
  begin
     id 17 
     name lclavicle
     direction 0.90877 0.417247 -0.00652364  
     length 3.25514  
     axis 0 0 0   XYZ
    dof ry rz
    limits (-20.0 10.0)
           (0.0 20.0)
  end
  begin
     id 18 
     name lhumerus
     direction 1 -4.48949e-011 8.31417e-028   
     length 4.84834   
     axis 180 -30 -90   XYZ
    dof rx ry rz
    limits (-60.0 90.0)
           (-90.0 90.0)
           (-90.0 90.0)
  end
  begin
     id 19
     name lradius
     direction 1 -4.48984e-011 3.45616e-027   
     length 2.99713   
     axis 180 -30 -90   XYZ
    dof rx
    limits (-10.0 170.0)
  end
  begin
     id 20
     name lwrist
     direction 1 -4.4891e-011 4.0479e-027   
     length 1.49857   
     axis -1.61768e-015 90 90   XYZ
    dof ry
    limits (-180.0 0.0)
 end
  begin
     id 21 
     name lhand
     direction 1 -4.49025e-011 8.0958e-027   
     length 0.693987   
     axis -5.16581e-015 90 90   XYZ
    dof rx rz
    limits (-90.0 90.0)
           (-45.0 45.0)
  end
  begin
     id 22 
     name lfingers
     direction 1 -4.4888e-011 1.61916e-026   
     length 0.55951   
     axis -1.03316e-014 90 90   XYZ
    dof rx
    limits (0.0 90.0)
  end
  begin
     id 23
     name lthumb
     direction 0.707107 -6.3493e-011 0.707107   
     length 0.803348   
     axis -90 45 2.85299e-015   XYZ
    dof rx rz
    limits (-45.0 45.0)
           (-45.0 45.0)
  end
  begin
     id 24 
     name rclavicle
     direction -0.906655 0.41906 0.0486307   
     length 3.3311  
     axis 0 0 0   XYZ 
    dof ry rz
    limits (-10.0 20.0)
           (-20.0 0.0)
  end
  begin
     id 25 
     name rhumerus
     direction -1 -4.48959e-011 6.37764e-018  
     length 4.93457   
     axis 180 30 90   XYZ
    dof rx ry rz
    limits (-90.0 60.0)
           (-90.0 90.0)
           (-90.0 90.0)
  end
  begin
     id 26 
     name rradius
     direction -1 -4.48957e-011 2.20847e-027   
     length 3.3443   
     axis 180 30 90   XYZ
    dof rx
    limits (-10.0 170.0)
  end
  begin
     id 27 
     name rwrist
     direction -1 -4.49008e-011 4.0479e-027   
     length 1.67215   
     axis -1.61768e-015 -90 -90   XYZ
    dof ry
    limits (-180.0 0.0)
  end
  begin
     id 28
     name rhand
     direction -1 -4.49013e-011 8.0958e-027   
     length 0.677363   
     axis -5.16581e-015 -90 -90   XYZ
    dof rx rz
    limits (-90.0 90.0)
           (-45.0 45.0)
  end
  begin
     id 29
     name rfingers
     direction -1 -4.48832e-011 1.61916e-026   
     length 0.546107   
     axis -1.03316e-014 -90 -90   XYZ
    dof rx
    limits (0.0 90.0)
  end
  begin
     id 30
     name rthumb
     direction -0.707107 -6.34895e-011 0.707107   
     length 0.784104   
     axis -90 -45 -2.85299e-015   XYZ
    dof rx rz
    limits (-45.0 45.0)
           (-45.0 45.0)
  end
:hierarchy
  begin
    root lhipjoint rhipjoint lowerback
    lhipjoint lfemur
    lfemur ltibia
    ltibia lfoot
    lfoot ltoes
    rhipjoint rfemur
    rfemur rtibia
    rtibia rfoot
    rfoot rtoes
    lowerback upperback
    upperback thorax
    thorax lowerneck lclavicle rclavicle
    lowerneck upperneck
    upperneck head
    lclavicle lhumerus
    lhumerus lradius
    lradius lwrist
    lwrist lhand lthumb
    lhand lfingers
    rclavicle rhumerus
    rhumerus rradius
    rradius rwrist
    rwrist rhand rthumb
    rhand rfingers
  end

#!OML:ASF H:\Terrain\Patient Classification 1\junglegym\FridayTest\junglegym.ASF
:FULLY-SPECIFIED
:DEGREES
29
root -11.4085 15.9538 0.477792 -37.5811 -82.9315 10.9018
lowerback 9.4401 0.753835 1.69444
upperback -4.14753 1.03989 -1.91773
thorax -9.68061 0.311757 -3.19089
lowerneck 4.38644 2.72727 -9.49313
upperneck 38.399 -0.936059 9.56703
head 11.9332 -1.77592 5.1535
rclavicle 3.51849e-014 -4.13472e-014
rhumerus 101.584 -19.8533 -62.5723
rradius 32.7726
rwrist 10.6886
rhand 19.95 17.1851
rfingers 7.12502
rthumb 44.4885 -6.51314
lclavicle 3.51849e-014 -4.13472e-014
lhumerus 97.8545 17.1741 60.7644
lradius 32.8822
lwrist -24.999
lhand 8.09066 20.0108
lfingers 7.12502
lthumb 33.3132 46.9444
rfemur -19.783 -6.43747 27.1835
rtibia 85.7696
rfoot -3.43426 -7.44589
rtoes 32.128
lfemur -11.1625 4.48658 -15.6467
ltibia 76.4533
lfoot -9.91693 6.61935
ltoes -26.0641
30
root -11.611 15.9624 0.484597 -42.007 -82.5113 14.3844
lowerback 9.58508 -0.324329 -0.340576
upperback -3.31936 -0.489017 -0.0534398
thorax -8.9175 -0.221738 0.219135
lowerneck 1.49522 3.93427 -14.5979
upperneck 39.6317 1.64768 9.77511
head 12.6807 -1.28176 6.48126
rclavicle 9.93923e-016 -2.42517e-014
rhumerus 105.025 -16.1344 -62.6601
rradius 32.6667
rwrist 10.5841
rhand 19.5683 17.4198
rfingers 7.12502
rthumb 44.1328 -6.41334
lclavicle 9.93923e-016 -2.42517e-014
lhumerus 97.098 21.807 61.9505
lradius 32.2166
lwrist -25.854
lhand 8.21591 19.9337
lfingers 7.12502
lthumb 33.4323 46.8417
rfemur -20.2847 -6.27076 26.5408
rtibia 84.178
rfoot -3.68442 -6.2101
rtoes 30.8352
lfemur -11.6464 3.63064 -16.7406
ltibia 75.1804
lfoot -10.1758 5.93016
ltoes -19.4122
31
root -11.8145 15.9409 0.500726 -38.4749 -82.8436 9.61054
lowerback 10.0916 -0.0997471 0.64043
upperback -3.17263 -0.0893878 -0.457155
thorax -9.05911 -0.0961418 -0.831722
lowerneck 2.63898 3.56919 -12.6715
upperneck 39.5588 0.776368 9.40538
head 12.5679 -1.48132 5.8803
rclavicle 9.93923e-015 -1.36167e-014
rhumerus 104.194 -17.5645 -62.2713
rradius 32.2958
rwrist 10.2426
rhand 19.4859 17.5305
rfingers 7.12502
rthumb 44.0558 -6.33148
lclavicle 9.93923e-015 -1.36167e-014
lhumerus 97.9956 20.5507 61.664
lradius 31.7244
lwrist -25.5638
lhand 8.36127 19.9986
lfingers 7.12502
lthumb 33.5705 46.8767
rfemur -20.2789 -6.21291 27.478
rtibia 82.1159
rfoot -3.61655 -5.94011
rtoes 23.1331
lfemur -11.8294 3.22273 -16.2672
ltibia 74.0077
lfoot -10.2888 7.22596
ltoes -29.1039
32
root -12.0155 15.9319 0.516141 -32.5976 -83.3577 2.46195
lowerback 10.6113 -0.0810561 1.71106
upperback -2.82473 0.0971629 -0.394843
thorax -8.9807 -0.0599816 -1.40353
lowerneck 3.72992 3.41037 -11.6842
upperneck 39.0202 0.279156 9.46176
head 12.1784 -1.56214 5.63413
rclavicle 1.8313e-014 -1.72446e-014
rhumerus 103.773 -18.6883 -61.5403
rradius 32.2974
rwrist 9.27338
rhand 20.1607 17.6498
rfingers 7.12502
rthumb 44.6847 -5.97291
lclavicle 1.8313e-014 -1.72446e-014
lhumerus 98.3446 20.339 61.3606
lradius 31.8703
lwrist -25.3128
lhand 8.54077 19.8932
lfingers 7.12502
lthumb 33.741 46.734
rfemur -20.1308 -5.94251 28.7224
rtibia 79.7926
rfoot -3.61406 -5.74528
rtoes 16.7749
lfemur -12.0835 2.61917 -15.4349
ltibia 72.8048
lfoot -10.5468 8.17042
ltoes -34.4759
33
root -12.2138 15.9457 0.522018 -33.2089 -83.5092 2.15613
lowerback 10.7959 -0.574228 1.02988
upperback -2.26975 -0.575367 0.624404
thorax -8.49069 -0.31434 0.185937
lowerneck 2.83013 4.19746 -14.5752
upperneck 39.2113 1.67807 10.02
head 12.2063 -1.2553 6.50821
rclavicle -1.63003e-014 -1.63003e-014
rhumerus 105.192 -17.5471 -60.8601
rradius 32.4133
rwrist 8.18789
rhand 20.3532 17.7998
rfingers 7.12502
rthumb 44.864 -5.75314
lclavicle -1.63003e-014 -1.63003e-014
lhumerus 97.4646 22.7475 61.6503
lradius 32.2726
lwrist -25.6173
lhand 8.88773 20.2079
lfingers 7.12502
lthumb 34.0706 46.976
rfemur -20.5016 -5.17684 28.9105
rtibia 77.6239
rfoot -3.77545 -4.96512
rtoes 18.4552
lfemur -12.4278 2.07371 -15.7023
ltibia 71.309
lfoot -10.3744 8.10892
ltoes -34.9854
34
root -12.4054 15.9478 0.518515 -35.2813 -83.2319 3.69158
lowerback 10.9117 0.133854 1.23025
upperback -2.39457 0.282343 -0.826987
thorax -8.68028 0.0479942 -1.62586
lowerneck 3.69895 3.34683 -11.2012
upperneck 39.5666 -0.316668 10.5653
head 12.4825 -1.69733 5.98593
rclavicle 2.39536e-014 -1.97791e-014
rhumerus 103.104 -20.7213 -60.3687
rradius 32.0957
rwrist 7.40734
rhand 20.0908 17.5951
rfingers 7.12502
rthumb 44.6197 -6.05273
lclavicle 2.39536e-014 -1.97791e-014
lhumerus 98.7326 19.8021 61.0459
lradius 32.2132
lwrist -25.0672
lhand 9.02462 20.4706
lfingers 7.12502
lthumb 34.2006 47.2096
rfemur -21.2908 -4.5412 28.737
rtibia 75.442
rfoot -3.84373 -4.33267
rtoes 19.8838
lfemur -13.2804 1.33197 -16.3655
ltibia 69.6648
lfoot -10.1891 7.60622
ltoes -33.6675
35
root -12.6016 15.9345 0.521242 -33.9915 -83.1721 1.8143
lowerback 10.9176 0.0741653 1.10204
upperback -2.25416 0.176449 -0.918489
thorax -8.53544 0.00265493 -1.63052
lowerneck 3.88171 3.23058 -10.3891
upperneck 39.5182 -0.419268 10.0632
head 12.4512 -1.68764 5.61428
rclavicle 3.47873e-015 -3.77691e-015
rhumerus 102.883 -21.405 -60.026
rradius 32.0583
rwrist 6.42793
rhand 20.1885 17.6265
rfingers 7.12502
rthumb 44.7106 -5.9861
lclavicle 3.47873e-015 -3.77691e-015
lhumerus 98.9423 19.9529 60.5648
lradius 32.0088
lwrist -24.5341
lhand 8.76396 20.0688
lfingers 7.12502
lthumb 33.9531 46.8629
rfemur -21.9446 -4.32622 28.9604
rtibia 73.1721
rfoot -3.85051 -3.78249
rtoes 18.4599
lfemur -14.1717 0.503368 -16.5186
ltibia 68.0585
lfoot -10.1971 7.49505
ltoes -32.6739
36
root -12.7974 15.9543 0.527002 -30.6185 -83.4777 -2.3757
lowerback 10.8823 -0.00470807 1.64002
upperback -1.90208 0.147762 -0.894102
thorax -8.13548 -0.0301472 -1.90042
lowerneck 3.96826 3.19314 -10.1014
upperneck 39.418 -0.371777 9.68389
head 12.3911 -1.66386 5.40153
rclavicle -1.16289e-014 5.36719e-015
rhumerus 103.054 -21.8883 -60.1661
rradius 31.9311
rwrist 5.96965
rhand 20.5861 17.833
rfingers 7.12502
rthumb 45.0807 -5.63467
lclavicle -1.16289e-014 5.36719e-015
lhumerus 98.9914 20.279 60.0563
lradius 32.2523
lwrist -24.151
lhand 8.7327 20.0913
lfingers 7.12502
lthumb 33.9234 46.8921
rfemur -21.9383 -2.39431 29.9303
rtibia 70.5758
rfoot -3.87633 -4.56576
rtoes 17.003
lfemur -14.571 -0.0223506 -16.1809
ltibia 66.3745
lfoot -10.0812 7.67033
ltoes -33.8512
37
root -13.004 15.9423 0.543384 -28.4967 -83.8164 -5.72589
lowerback 11.3023 -0.0788537 2.28714
upperback -1.4431 0.143003 -0.891046
thorax -7.88304 -0.055274 -2.26226
lowerneck 4.12387 3.33777 -10.3272
upperneck 39.2234 -0.245734 10.0206
head 12.2467 -1.59849 5.57525
rclavicle 2.78299e-015 7.15625e-015
rhumerus 103.144 -22.2714 -60.0551
rradius 31.8904
rwrist 5.35055
rhand 20.4706 17.481
rfingers 7.12502
rthumb 44.9733 -6.02909
lclavicle 2.78299e-015 7.15625e-015
lhumerus 99.2413 20.5544 59.823
lradius 32.2785
lwrist -23.872
lhand 8.62387 20.2439
lfingers 7.12502
lthumb 33.82 47.0674
rfemur -21.7154 -2.90303 30.1219
rtibia 68.0569
rfoot -3.32346 -3.34928
rtoes 15.0292
lfemur -14.6093 -0.126352 -15.8817
ltibia 64.887
lfoot -9.939 7.8407
ltoes -37.0755
38
root -13.2031 15.9357 0.556752 -26.6718 -83.9376 -8.61967
lowerback 11.8308 -0.167499 2.6098
upperback -1.21008 0.077844 -0.909713
thorax -7.93923 -0.101023 -2.45546
lowerneck 4.55353 3.3792 -10.2537
upperneck 38.958 -0.260789 10.1198
head 12.0443 -1.58963 5.57714
rclavicle 8.54774e-015 -6.67916e-014
rhumerus 102.576 -22.75 -59.3536
rradius 32.1491
rwrist 4.0885
rhand 19.7429 16.9135
rfingers 7.12502
rthumb 44.2955 -6.85829
lclavicle 8.54774e-015 -6.67916e-014
lhumerus 99.3856 20.7629 59.5553
lradius 31.9745
lwrist -23.5426
lhand 8.35524 19.9306
lfingers 7.12502
lthumb 33.5647 46.8099
rfemur -21.6276 -2.90935 30.3455
rtibia 65.4251
rfoot -2.62997 -2.74609
rtoes 10.0161
lfemur -14.9217 -0.47838 -15.7634
ltibia 63.3454
lfoot -9.76869 7.6766
ltoes -38.2188
39
root -13.3984 15.9433 0.569981 -25.7206 -84.0894 -10.2981
lowerback 12.0374 -0.185366 2.63746
upperback -1.14807 0.0606508 -0.925348
thorax -7.99181 -0.11154 -2.48572
lowerneck 4.59565 3.36395 -10.1167
upperneck 39.2557 -0.368272 10.1377
head 12.1833 -1.64869 5.56467
rclavicle 1.78906e-014 -8.94531e-015
rhumerus 101.75 -23.3844 -58.4999
rradius 32.4964
rwrist 2.88192
rhand 19.5666 16.6885
rfingers 7.12502
rthumb 44.1311 -7.14534
lclavicle 1.78906e-014 -8.94531e-015
lhumerus 99.128 20.8939 59.0235
lradius 32.0655
lwrist -23.3189
lhand 8.65455 20.0071
lfingers 7.12502
lthumb 33.8491 46.8243
rfemur -21.8166 -2.00559 30.6249
rtibia 62.8826
rfoot -1.71769 -2.84119
rtoes 3.84499
lfemur -15.5529 -1.09736 -15.8185
ltibia 61.7799
lfoot -9.74789 7.17587
ltoes -36.0783
40
root -13.5878 15.9636 0.578228 -27.8057 -84.1592 -8.82937
lowerback 12.1413 -0.16385 2.36632
upperback -1.05188 0.0480763 -0.946763
thorax -7.94774 -0.105128 -2.35261
lowerneck 4.16957 3.34362 -10.2001
upperneck 39.8303 -0.397956 10.0699
head 12.5329 -1.70983 5.5877
rclavicle -3.18055e-015 1.49089e-014
rhumerus 101.546 -23.6742 -58.1789
rradius 32.5007
rwrist 2.66201
rhand 19.6975 16.8115
rfingers 7.12502
rthumb 44.2531 -6.97629
lclavicle -3.18055e-015 1.49089e-014
lhumerus 98.7742 21.0594 58.6635
lradius 32.4792
lwrist -23.0555
lhand 8.99197 20.4104
lfingers 7.12502
lthumb 34.1696 47.1564
rfemur -22.0615 -0.403379 30.5332
rtibia 60.3583
rfoot -0.610795 -3.35908
rtoes 6.9228
lfemur -16.1114 -1.64463 -16.2319
ltibia 60.041
lfoot -9.53723 6.8792
ltoes -34.5507
41
root -13.7829 15.96 0.581197 -29.5921 -84.1067 -7.60222
lowerback 12.2435 -0.194802 1.915
upperback -0.891214 -0.0477498 -0.783758
thorax -7.83682 -0.126229 -1.90506
lowerneck 4.67062 3.52343 -10.9185
upperneck 39.2767 -0.136118 10.2669
head 12.1425 -1.65483 5.77783
rclavicle -1.61016e-014 2.22639e-014
rhumerus 101.981 -23.3639 -58.2824
rradius 32.3184
rwrist 2.97383
rhand 19.7509 16.8446
rfingers 7.12502
rthumb 44.303 -6.92433
lclavicle -1.61016e-014 2.22639e-014
lhumerus 98.8156 21.3341 58.9842
lradius 32.3926
lwrist -22.9719
lhand 8.57281 19.9111
lfingers 7.12502
lthumb 33.7715 46.7453
rfemur -22.6159 -0.853559 30.0693
rtibia 57.9554
rfoot 0.627835 -2.27731
rtoes 14.7886
lfemur -16.8555 -2.18076 -16.628
ltibia 58.3412
lfoot -8.8322 6.77166
ltoes -35.3754
